<svg width="64" height="64" viewBox="0 0 64 64" fill="none" xmlns="http://www.w3.org/2000/svg">
<path d="M0 32C0 14.3269 14.3269 0 32 0H60C62.2091 0 64 1.79086 64 4V32C64 49.6731 49.6731 64 32 64C14.3269 64 0 49.6731 0 32Z" fill="#00D68F"/>
<path fill-rule="evenodd" clip-rule="evenodd" d="M40.9922 26.9629C40.9902 26.8909 40.9692 26.8229 40.9502 26.7539C40.9352 26.6959 40.9282 26.6369 40.9032 26.5839C40.8802 26.5319 40.8412 26.4899 40.8072 26.4419C40.7652 26.3809 40.7272 26.3199 40.6732 26.2699C40.6642 26.2609 40.6602 26.2489 40.6502 26.2409C40.6142 26.2099 40.5702 26.1989 40.5312 26.1739C40.4712 26.1349 40.4122 26.0949 40.3442 26.0689C40.2772 26.0449 40.2112 26.0389 40.1422 26.0289C40.0942 26.0219 40.0512 25.9999 40.0002 25.9999H35.0002C34.4472 25.9999 34.0002 26.4479 34.0002 26.9999C34.0002 27.5519 34.4472 27.9999 35.0002 27.9999H37.8262L33.7902 32.7079L29.5142 30.1429C29.0912 29.8869 28.5472 29.9809 28.2312 30.3599L23.2312 36.3599C22.8782 36.7839 22.9352 37.4149 23.3592 37.7679C23.5472 37.9239 23.7732 37.9999 23.9992 37.9999C24.2862 37.9999 24.5702 37.8779 24.7682 37.6399L29.2202 32.2979L33.4852 34.8579C33.9042 35.1089 34.4422 35.0209 34.7592 34.6509L39.0002 29.7029V31.9999C39.0002 32.5519 39.4472 32.9999 40.0002 32.9999C40.5532 32.9999 41.0002 32.5519 41.0002 31.9999V26.9999C41.0002 26.9869 40.9932 26.9759 40.9922 26.9629Z" fill="white"/>
</svg>
