<svg width="384" height="320" viewBox="0 0 384 320" fill="none" xmlns="http://www.w3.org/2000/svg">
<rect x="208" width="176" height="320" rx="24" fill="#F2F8FF"/>
<g clip-path="url(#clip0_354_2813)">
<path d="M23.962 261.556C37.1958 261.556 47.9239 260.733 47.9239 259.717C47.9239 258.701 37.1958 257.878 23.962 257.878C10.7281 257.878 0 258.701 0 259.717C0 260.733 10.7281 261.556 23.962 261.556Z" fill="#E4E9F2"/>
<path d="M75.6514 265C88.8852 265 99.6133 264.177 99.6133 263.161C99.6133 262.146 88.8852 261.322 75.6514 261.322C62.4175 261.322 51.6894 262.146 51.6894 263.161C51.6894 264.177 62.4175 265 75.6514 265Z" fill="#E4E9F2"/>
<path d="M257.856 55H136.942C136.237 55.0009 135.561 55.2831 135.062 55.7847C134.564 56.2863 134.283 56.9664 134.282 57.6758V261.392C134.283 262.102 134.563 262.782 135.062 263.284C135.56 263.786 136.237 264.068 136.942 264.068H257.856C258.489 264.068 259.102 263.841 259.583 263.427C260.064 263.013 260.382 262.439 260.48 261.809C260.504 261.672 260.516 261.532 260.515 261.392V57.6758C260.515 56.9664 260.234 56.2863 259.736 55.7847C259.237 55.2831 258.561 55.0009 257.856 55ZM259.452 261.392C259.452 261.818 259.284 262.226 258.984 262.527C258.685 262.828 258.279 262.998 257.856 262.998H136.942C136.519 262.998 136.113 262.828 135.814 262.527C135.514 262.226 135.346 261.818 135.346 261.392V57.6758C135.347 57.2502 135.515 56.8422 135.814 56.5413C136.113 56.2403 136.519 56.071 136.942 56.0703H257.856C258.279 56.071 258.685 56.2403 258.984 56.5413C259.283 56.8422 259.451 57.2502 259.452 57.6758V261.392Z" fill="#E4E9F2"/>
<path d="M146.516 70.0271C146.234 70.0274 145.963 70.1403 145.764 70.3409C145.564 70.5416 145.452 70.8137 145.452 71.0974V115.337C145.452 115.621 145.564 115.893 145.764 116.094C145.963 116.294 146.234 116.407 146.516 116.407H248.282C248.564 116.407 248.835 116.294 249.034 116.094C249.233 115.893 249.346 115.621 249.346 115.337V71.0974C249.346 70.8136 249.233 70.5416 249.034 70.3409C248.835 70.1403 248.564 70.0274 248.282 70.0271L146.516 70.0271Z" fill="#E4E9F2"/>
<path d="M104.009 104.642C103.737 104.642 103.475 104.751 103.283 104.945C103.09 105.138 102.982 105.401 102.982 105.675V148.383C102.982 148.657 103.09 148.92 103.283 149.114C103.475 149.307 103.737 149.416 104.009 149.417H202.253C202.525 149.416 202.786 149.307 202.979 149.114C203.171 148.92 203.28 148.657 203.28 148.383V105.675C203.28 105.401 203.171 105.138 202.979 104.945C202.786 104.751 202.525 104.642 202.253 104.642H104.009Z" fill="#0095FF"/>
<path d="M54.0028 203.842C54.1321 207.041 52.1014 209.876 50.2 212.424C49.3329 213.618 41.2747 221.707 38.8408 225.242C38.2514 226.099 23.7815 242.904 23.04 244.462C22.8656 244.831 22.7218 245.213 22.6102 245.606C22.1767 247.098 22.1577 248.705 22.1958 250.297V251.41C22.2718 253.84 22.3821 256.281 22.9563 258.634C23.04 258.979 23.135 259.327 23.1845 259.675C23.0309 259.574 22.8859 259.46 22.751 259.335L14.8867 253.461L14.3961 253.094C13.8941 251.632 13.4188 250.155 12.8826 248.713C12.5631 247.856 12.9054 246.876 13.4682 246.161C14.078 245.483 14.7503 244.866 15.4761 244.316C16.0333 243.736 16.5303 243.1 16.9592 242.419C22.3859 234.471 37.6695 205.954 38.7838 200.215C40.2527 199.939 41.7577 199.92 43.2331 200.157L51.0784 201.206C51.9264 201.321 52.8543 201.477 53.4058 202.132C53.7823 202.622 53.9917 203.222 54.0028 203.842Z" fill="#EFB7B9"/>
<path d="M87.4908 210.362C87.3236 211.555 86.9048 212.698 86.2624 213.714C85.4562 214.95 76.1963 238.914 73.3175 248.808C72.7889 250.626 73.0665 252.382 73.0095 252.991C72.9638 253.496 72.922 254.001 72.884 254.502C72.8307 255.126 72.7889 255.749 72.7433 256.369C72.6254 258.011 72.5227 259.736 73.211 261.229C73.481 261.818 73.8879 262.327 74.0667 262.916C73.7984 262.777 73.5502 262.602 73.3289 262.396L65.4646 256.522C64.8234 254.694 64.3287 252.817 63.9853 250.909C63.7876 249.826 63.6925 248.583 64.3656 247.752C64.4043 247.701 64.4462 247.653 64.4911 247.607C64.7106 247.4 64.9561 247.222 65.2212 247.079C65.4645 246.945 65.6982 246.794 65.921 246.627C66.0881 246.496 66.2387 246.344 66.3697 246.176C67.0162 245.372 67.2482 244.244 67.4421 243.184C68.2027 238.845 74.6447 212.222 74.523 211.563C74.3899 210.917 70.7316 204.714 68.2217 203.337C70.8258 201.142 73.7962 199.43 76.9949 198.279C77.5585 198.014 78.1824 197.907 78.8012 197.969C79.1324 198.042 79.4487 198.171 79.7367 198.351C81.4594 199.323 82.779 200.854 84.0416 202.384C85.924 204.688 87.8064 207.397 87.4908 210.362Z" fill="#EFB7B9"/>
<path d="M84.0591 201.144C83.8155 203.458 77.3538 205.505 69.1828 206.78C67.0726 207.109 61.8878 194.258 59.6272 194.476C56.9089 194.737 57.0987 208.038 54.4103 208.11C45.2584 208.353 39.3442 207.409 37.4323 204.679C36.3979 204.427 35.1506 203.83 35.2 202.766C35.2342 202.158 35.7134 201.618 35.7096 201.021C35.7096 199.981 38.71 188.586 40.4784 183.179C40.9195 181.836 41.2389 180.459 41.7371 179.131C43.8895 173.147 44.8136 168.555 48.7458 163.573C49.3474 162.874 49.8422 162.089 50.2137 161.243C50.5512 160.228 50.727 159.165 50.7347 158.094L50.9514 154.348C56.7812 154.073 62.4437 154.184 68.1479 155.424C68.4574 155.414 68.7579 155.529 68.9832 155.743C69.2085 155.957 69.3403 156.252 69.3494 156.563L69.3496 156.571C69.5702 157.941 69.7249 159.317 69.8136 160.7C69.8163 161.005 69.8598 161.309 69.9429 161.603C70.0926 161.974 70.3006 162.319 70.5589 162.625C73.8598 166.979 75.883 172.19 77.4801 177.409C79.0773 182.628 80.3475 187.993 82.3554 193.097C83.0475 194.857 83.9526 196.835 84.1351 198.722C84.8577 199.261 84.698 200.482 84.0591 201.144Z" fill="#2E3A59"/>
<path d="M89.5998 138.4C90.6038 137.547 91.6077 136.69 92.528 135.749C93.8266 134.364 95.0262 132.888 96.1179 131.333C97.2816 129.738 98.4377 128.104 99.1602 126.259C99.9778 124.147 100.229 121.744 101.651 119.992C101.812 119.764 102.035 119.589 102.294 119.487C103.104 119.231 103.708 120.252 103.864 121.098C104.625 125.238 102.811 129.37 101.046 133.189C100.465 134.448 99.8561 135.741 98.8483 136.694C98.2954 137.169 97.7178 137.615 97.118 138.029C96.2271 138.758 95.4071 139.57 94.669 140.455C93.4014 141.904 92.1959 143.405 91.0525 144.958C89.634 146.872 88.303 148.877 86.6222 150.564C84.9413 152.251 82.8383 153.625 80.4844 153.958C81.1575 153.866 80.9369 149.891 80.8647 149.389C80.762 148.662 80.2676 147.805 80.2524 147.094C80.2334 146.221 80.5871 146.095 81.302 145.483L89.5998 138.4Z" fill="#EFB7B9"/>
<path d="M61.375 113.361C61.375 113.361 59.0933 124.84 56.4314 126.753C53.7694 128.666 70.8822 130.962 70.8822 130.962C70.8822 130.962 71.2625 121.779 75.8259 117.57C80.3893 113.361 61.375 113.361 61.375 113.361Z" fill="#EFB7B9"/>
<path d="M76.7081 158.943C77.2723 159.121 77.863 159.199 78.4536 159.173C80.4503 159.151 82.418 158.69 84.2188 157.822C84.3875 157.757 84.5368 157.649 84.6523 157.509C84.7195 157.362 84.7559 157.203 84.7591 157.042C84.7624 156.881 84.7325 156.72 84.6713 156.571C83.5989 152.209 85.6677 147.262 83.6141 143.275C81.3819 144.006 78.9328 144.805 76.7005 145.517C76.3582 145.657 75.9896 145.72 75.6205 145.701C75.1784 145.608 74.7734 145.386 74.4569 145.062C72.0382 142.957 70.5133 140.026 69.1329 137.13C67.7524 134.233 66.3986 131.245 64.2234 128.888C62.0482 126.531 60.0136 125.284 56.8344 125.624C55.706 125.779 54.6699 126.336 53.9139 127.193C52.1189 129.137 51.7614 132.094 52.3927 134.673C53.024 137.252 54.4729 139.537 55.9788 141.714C57.9411 144.553 60.0516 147.35 62.7783 149.458C64.2533 150.533 65.7842 151.528 67.3645 152.439" fill="#E4E9F2"/>
<path d="M70.3118 121.97C76.6125 121.97 81.7203 116.831 81.7203 110.491C81.7203 104.152 76.6125 99.0125 70.3118 99.0125C64.011 99.0125 58.9032 104.152 58.9032 110.491C58.9032 116.831 64.011 121.97 70.3118 121.97Z" fill="#EFB7B9"/>
<path d="M74.8752 143.527C71.4455 147.597 70.7207 152.795 70.0189 157.926C66.5735 156.751 62.7555 158.722 59.1884 158.002C57.3969 157.402 55.5015 157.181 53.621 157.352C52.3015 157.225 50.9933 156.391 49.7345 156.816C47.6419 158.15 49.6797 149.888 49.5554 147.487C48.4587 106.986 81.1084 126.689 74.8752 143.527Z" fill="#E4E9F2"/>
<path d="M94.1632 139.931C95.1672 139.078 96.1711 138.22 97.0914 137.279C98.39 135.894 99.5896 134.419 100.681 132.864C101.845 131.268 103.001 129.634 103.724 127.79C104.541 125.678 104.792 123.275 106.214 121.523C106.375 121.295 106.599 121.119 106.857 121.017C107.667 120.761 108.272 121.783 108.428 122.628C109.188 126.768 107.374 130.901 105.61 134.719C105.028 135.978 104.42 137.271 103.412 138.224C102.859 138.7 102.281 139.145 101.681 139.56C100.791 140.288 99.9705 141.101 99.2324 141.985C97.9648 143.434 96.7593 144.936 95.6159 146.489C94.1975 148.402 92.8665 150.407 91.1856 152.094C89.5048 153.782 87.4018 155.156 85.0478 155.488C85.7209 155.397 85.5003 151.421 85.4281 150.92C85.3254 150.193 84.831 149.336 84.8158 148.624C84.7968 147.752 85.1505 147.625 85.8654 147.013L94.1632 139.931Z" fill="#EFB7B9"/>
<path opacity="0.1" d="M73.7343 143.91L73.7077 143.96C73.0498 145.188 72.0649 146.221 71.388 147.446C70.6274 148.831 70.2737 150.411 69.9695 151.968C69.7591 153.014 69.5651 154.061 69.3877 155.11C68.0221 154.322 66.7017 153.457 65.4327 152.519C62.7061 150.411 60.5955 147.614 58.6332 144.771C57.1121 142.594 55.667 140.31 55.0471 137.734C54.4273 135.159 54.7885 132.198 56.5683 130.254C57.3242 129.396 58.36 128.838 59.4888 128.681C62.668 128.341 64.6759 129.577 66.8512 131.93C69.0264 134.283 70.3726 137.287 71.7606 140.172C72.3767 141.423 73.008 142.705 73.7343 143.91Z" fill="#222B45"/>
<path d="M61.3979 127.155C60.2694 127.31 59.2334 127.866 58.4773 128.724C56.6824 130.667 56.3249 133.625 56.9562 136.204C57.5874 138.783 59.0363 141.067 60.5422 143.244C62.5045 146.083 64.6151 148.88 67.3417 150.989C68.8168 152.063 70.3477 153.058 71.928 153.969C74.5539 155.597 77.0775 155.09 79.4842 157.03C80.0119 157.511 80.6161 157.899 81.2716 158.178C81.8358 158.356 82.4264 158.434 83.0171 158.408C85.0137 158.386 86.9814 157.16 88.7822 156.292C88.951 156.226 89.1002 156.118 89.2158 155.978C89.283 155.832 89.3193 155.673 89.3226 155.511C89.3259 155.35 89.296 155.19 89.2348 155.041C88.1624 150.679 90.2311 148.792 88.1776 144.805C85.9453 145.536 83.4963 146.336 81.264 147.047C80.9217 147.187 80.553 147.25 80.184 147.231C79.7418 147.139 79.3368 146.916 79.0203 146.592C76.6017 144.488 75.0768 141.557 73.6963 138.66C72.3159 135.764 70.9621 132.776 68.7868 130.419C66.6116 128.062 64.5771 126.814 61.3979 127.155Z" fill="#E4E9F2"/>
<path d="M77.2839 263.054C76.7754 263.574 76.1142 263.915 75.398 264.028C74.6817 264.141 73.9483 264.02 73.3061 263.681C73.0378 263.542 72.7896 263.367 72.5684 263.161L64.704 257.288L61.5857 254.957C61.2577 254.65 60.9952 254.28 60.8142 253.867C60.6331 253.455 60.5374 253.01 60.5328 252.559C60.5282 252.109 60.6147 251.662 60.7873 251.246C60.9598 250.83 61.2146 250.454 61.5363 250.14L63.605 248.518L64.4607 247.844L65.6091 246.941L66.6131 246.153L73.0551 249.788L73.1654 250.002L78.0406 259.461C78.2684 260.07 78.3181 260.732 78.184 261.369C78.0499 262.005 77.7376 262.59 77.2839 263.054Z" fill="#2E3A59"/>
<path d="M26.7059 259.993C26.1975 260.513 25.5363 260.854 24.8201 260.967C24.1038 261.08 23.3704 260.959 22.7282 260.62C22.6255 260.567 22.5228 260.505 22.4239 260.44C22.2703 260.339 22.1253 260.225 21.9904 260.1L14.1261 254.226L13.6355 253.859L11.0078 251.896C10.6798 251.589 10.4172 251.219 10.2362 250.806C10.0552 250.394 9.95948 249.949 9.95485 249.498C9.95022 249.048 10.0368 248.601 10.2093 248.185C10.3818 247.769 10.6367 247.393 10.9583 247.079L13.0271 245.457L13.8827 244.783L15.0312 243.88L16.0352 243.092L16.1987 243.184L21.8497 246.371L22.4772 246.727L22.5874 246.941L27.4627 256.4C27.6904 257.009 27.7402 257.671 27.6061 258.308C27.472 258.944 27.1597 259.529 26.7059 259.993Z" fill="#2E3A59"/>
<path d="M81.0534 100.706C76.6359 95.6704 71.6547 93.2618 65.6827 95.4733C56.1007 92.2373 43.5052 114.476 51.261 122.541L64.3958 123.643L68.4178 116.357L66.9946 123.904L77.5009 124.959C72.1412 116.575 73.8604 108.515 81.0534 100.706Z" fill="#2E3A59"/>
<path d="M130.536 137.059C136.042 137.059 140.505 132.568 140.505 127.029C140.505 121.49 136.042 116.999 130.536 116.999C125.031 116.999 120.568 121.49 120.568 127.029C120.568 132.568 125.031 137.059 130.536 137.059Z" fill="white"/>
<path d="M153.035 125.694C152.729 125.7 152.438 125.825 152.223 126.045C152.009 126.264 151.888 126.559 151.888 126.867C151.888 127.175 152.009 127.47 152.223 127.69C152.438 127.909 152.729 128.035 153.035 128.04H184.509C184.818 128.045 185.117 127.926 185.339 127.71C185.561 127.494 185.689 127.197 185.694 126.886C185.699 126.575 185.581 126.275 185.366 126.052C185.151 125.828 184.857 125.7 184.547 125.694C184.535 125.694 184.522 125.694 184.509 125.694H153.035Z" fill="white"/>
<path d="M153.035 118.9C152.729 118.905 152.438 119.031 152.223 119.25C152.009 119.47 151.888 119.765 151.888 120.073C151.888 120.38 152.009 120.676 152.223 120.895C152.438 121.115 152.729 121.24 153.035 121.245H168.752C169.061 121.25 169.36 121.132 169.582 120.915C169.804 120.699 169.931 120.403 169.936 120.092C169.941 119.781 169.823 119.481 169.609 119.257C169.394 119.034 169.1 118.905 168.791 118.9C168.778 118.9 168.765 118.9 168.752 118.9H153.035Z" fill="white"/>
<path d="M153.035 132.813C152.729 132.818 152.438 132.944 152.223 133.163C152.009 133.382 151.888 133.678 151.888 133.985C151.888 134.293 152.009 134.588 152.223 134.808C152.438 135.027 152.729 135.153 153.035 135.158H184.509C184.662 135.161 184.814 135.133 184.957 135.076C185.099 135.02 185.229 134.936 185.34 134.829C185.45 134.721 185.538 134.594 185.599 134.452C185.66 134.311 185.692 134.159 185.695 134.005C185.697 133.851 185.67 133.697 185.613 133.554C185.557 133.411 185.473 133.28 185.367 133.169C185.26 133.059 185.133 132.97 184.992 132.909C184.852 132.848 184.701 132.815 184.547 132.813C184.535 132.812 184.522 132.812 184.509 132.813H153.035Z" fill="white"/>
<path d="M162.577 165.999C163.947 165.999 165.059 164.881 165.059 163.501C165.059 162.122 163.947 161.004 162.577 161.004C161.206 161.004 160.095 162.122 160.095 163.501C160.095 164.881 161.206 165.999 162.577 165.999Z" fill="#E4E9F2"/>
<path d="M172.806 162.208C172.469 162.214 172.147 162.353 171.911 162.595C171.675 162.836 171.542 163.162 171.542 163.501C171.542 163.841 171.675 164.166 171.911 164.408C172.147 164.65 172.469 164.789 172.806 164.794H233.397C233.737 164.799 234.065 164.667 234.308 164.429C234.552 164.19 234.692 163.864 234.698 163.522C234.703 163.18 234.574 162.85 234.338 162.604C234.102 162.358 233.779 162.215 233.439 162.208C233.425 162.208 233.411 162.208 233.397 162.208H172.806Z" fill="#E4E9F2"/>
<path d="M162.577 178.129C163.947 178.129 165.059 177.011 165.059 175.631C165.059 174.252 163.947 173.134 162.577 173.134C161.206 173.134 160.095 174.252 160.095 175.631C160.095 177.011 161.206 178.129 162.577 178.129Z" fill="#E4E9F2"/>
<path d="M172.806 174.338C172.469 174.344 172.147 174.483 171.911 174.725C171.675 174.967 171.542 175.292 171.542 175.631C171.542 175.971 171.675 176.296 171.911 176.538C172.147 176.78 172.469 176.919 172.806 176.925H233.397C233.737 176.929 234.065 176.797 234.309 176.559C234.552 176.321 234.693 175.995 234.698 175.653C234.704 175.31 234.574 174.98 234.338 174.734C234.102 174.487 233.779 174.345 233.439 174.338C233.425 174.338 233.411 174.338 233.397 174.338H172.806Z" fill="#E4E9F2"/>
<path d="M162.577 190.259C163.947 190.259 165.059 189.141 165.059 187.762C165.059 186.382 163.947 185.264 162.577 185.264C161.206 185.264 160.095 186.382 160.095 187.762C160.095 189.141 161.206 190.259 162.577 190.259Z" fill="#E4E9F2"/>
<path d="M172.806 186.468C172.469 186.474 172.147 186.613 171.911 186.855C171.675 187.097 171.542 187.422 171.542 187.762C171.542 188.101 171.675 188.426 171.911 188.668C172.147 188.91 172.469 189.049 172.806 189.055H233.397C233.737 189.059 234.065 188.927 234.309 188.689C234.552 188.451 234.693 188.125 234.698 187.783C234.704 187.441 234.574 187.11 234.338 186.864C234.102 186.618 233.779 186.475 233.439 186.468C233.425 186.468 233.411 186.468 233.397 186.468H172.806Z" fill="#E4E9F2"/>
<path d="M162.577 202.389C163.947 202.389 165.059 201.271 165.059 199.892C165.059 198.513 163.947 197.395 162.577 197.395C161.206 197.395 160.095 198.513 160.095 199.892C160.095 201.271 161.206 202.389 162.577 202.389Z" fill="#E4E9F2"/>
<path d="M172.806 198.599C172.469 198.605 172.147 198.743 171.911 198.985C171.675 199.227 171.542 199.553 171.542 199.892C171.542 200.231 171.675 200.557 171.911 200.799C172.147 201.041 172.469 201.179 172.806 201.185H233.397C233.566 201.189 233.734 201.158 233.892 201.096C234.05 201.034 234.193 200.941 234.315 200.823C234.437 200.705 234.535 200.564 234.602 200.408C234.67 200.252 234.706 200.084 234.709 199.913C234.711 199.743 234.681 199.574 234.618 199.415C234.556 199.257 234.463 199.113 234.345 198.991C234.227 198.869 234.087 198.771 233.931 198.704C233.776 198.637 233.608 198.601 233.439 198.599C233.425 198.599 233.411 198.599 233.397 198.599H172.806Z" fill="#E4E9F2"/>
<path d="M162.577 214.52C163.947 214.52 165.059 213.402 165.059 212.022C165.059 210.643 163.947 209.525 162.577 209.525C161.206 209.525 160.095 210.643 160.095 212.022C160.095 213.402 161.206 214.52 162.577 214.52Z" fill="#E4E9F2"/>
<path d="M172.806 210.729C172.469 210.735 172.147 210.873 171.911 211.115C171.675 211.357 171.542 211.683 171.542 212.022C171.542 212.361 171.675 212.687 171.911 212.929C172.147 213.171 172.469 213.309 172.806 213.315H233.397C233.737 213.319 234.065 213.188 234.308 212.949C234.552 212.711 234.692 212.385 234.698 212.043C234.703 211.701 234.574 211.371 234.338 211.125C234.102 210.878 233.779 210.736 233.439 210.729C233.425 210.729 233.411 210.729 233.397 210.729H172.806Z" fill="#E4E9F2"/>
<path d="M162.577 226.65C163.947 226.65 165.059 225.532 165.059 224.152C165.059 222.773 163.947 221.655 162.577 221.655C161.206 221.655 160.095 222.773 160.095 224.152C160.095 225.532 161.206 226.65 162.577 226.65Z" fill="#E4E9F2"/>
<path d="M172.806 222.859C172.469 222.865 172.147 223.004 171.911 223.245C171.675 223.487 171.542 223.813 171.542 224.152C171.542 224.491 171.675 224.817 171.911 225.059C172.147 225.301 172.469 225.44 172.806 225.445H233.397C233.737 225.449 234.065 225.318 234.308 225.08C234.552 224.841 234.692 224.515 234.698 224.173C234.703 223.831 234.574 223.501 234.338 223.255C234.102 223.008 233.779 222.866 233.439 222.859C233.425 222.859 233.411 222.859 233.397 222.859H172.806Z" fill="#E4E9F2"/>
<path d="M162.577 238.78C163.947 238.78 165.059 237.662 165.059 236.283C165.059 234.903 163.947 233.785 162.577 233.785C161.206 233.785 160.095 234.903 160.095 236.283C160.095 237.662 161.206 238.78 162.577 238.78Z" fill="#E4E9F2"/>
<path d="M172.806 234.989C172.469 234.995 172.147 235.134 171.911 235.376C171.675 235.618 171.542 235.943 171.542 236.283C171.542 236.622 171.675 236.947 171.911 237.189C172.147 237.431 172.469 237.57 172.806 237.576H233.397C233.737 237.58 234.065 237.448 234.309 237.21C234.552 236.972 234.693 236.646 234.698 236.304C234.704 235.962 234.574 235.631 234.338 235.385C234.102 235.139 233.779 234.996 233.439 234.989C233.425 234.989 233.411 234.989 233.397 234.989H172.806Z" fill="#E4E9F2"/>
<path d="M280 218.469C279.947 219.785 278.624 246.961 260.48 261.809C259.721 262.43 258.933 263.028 258.115 263.604L257.498 262.997H257.856C258.279 262.997 258.685 262.828 258.984 262.527C259.283 262.226 259.452 261.818 259.452 261.392V207.826C259.831 205.771 260.189 203.752 260.515 201.786C262.285 191.101 263.104 182.075 261.778 178.325C262.352 179.773 273.883 209.4 267.621 239.586C273.823 231.041 279.709 222.072 280 218.469Z" fill="#E4E9F2"/>
</g>
<defs>
<clipPath id="clip0_354_2813">
<rect width="280" height="210" fill="white" transform="translate(0 55)"/>
</clipPath>
</defs>
</svg>
