<svg width="64" height="64" viewBox="0 0 64 64" fill="none" xmlns="http://www.w3.org/2000/svg">
<path d="M0 32C0 14.3269 14.3269 0 32 0C49.6731 0 64 14.3269 64 32C64 49.6731 49.6731 64 32 64C14.3269 64 0 49.6731 0 32Z" fill="#FF3D71"/>
<path fill-rule="evenodd" clip-rule="evenodd" d="M36 31H33V28C33 27.447 32.552 27 32 27C31.448 27 31 27.447 31 28V32C31 32.553 31.448 33 32 33H36C36.553 33 37 32.553 37 32C37 31.447 36.553 31 36 31ZM32 40C27.589 40 24 36.411 24 32C24 27.589 27.589 24 32 24C36.411 24 40 27.589 40 32C40 36.411 36.411 40 32 40ZM32 22C26.486 22 22 26.486 22 32C22 37.514 26.486 42 32 42C37.514 42 42 37.514 42 32C42 26.486 37.514 22 32 22Z" fill="white"/>
</svg>
