<svg width="384" height="212" viewBox="0 0 384 212" fill="none" xmlns="http://www.w3.org/2000/svg">
<g clip-path="url(#clip0_330_2663)">
<path d="M197.595 210.915C191.524 211.807 185.381 212.104 179.252 211.8C164.474 211.055 149.941 206.765 137.521 198.699C132.014 195.123 126.761 190.728 123.91 184.826C120.042 176.81 121.395 166.663 126.919 159.681C128.934 157.163 131.413 155.052 134.222 153.462C134.638 153.228 135.064 153.002 135.494 152.785C140.174 150.436 145.431 149.475 150.642 150.017C159.501 150.983 167.678 156.384 172.401 163.931C176.609 170.659 178.075 178.599 178.94 186.556C179.103 188.055 179.243 189.559 179.379 191.054C178.626 195.384 177.442 199.629 175.845 203.725C175.763 203.925 175.697 204.13 175.646 204.34C176.551 206.3 177.412 208.278 178.229 210.274C178.997 210.69 179.858 210.907 180.731 210.906H197.559L197.595 210.915Z" fill="#F2F2F2"/>
<path d="M177.881 211.299C177.769 211.349 177.649 211.376 177.527 211.378C177.405 211.381 177.283 211.36 177.169 211.315C177.056 211.271 176.952 211.204 176.864 211.119C176.777 211.034 176.707 210.932 176.659 210.82C176.587 210.649 176.519 210.477 176.446 210.305C175.795 208.725 175.112 207.159 174.397 205.609C165.244 185.6 151.593 167.968 134.502 154.081C134.405 154.013 134.327 153.919 134.278 153.81C134.228 153.701 134.209 153.581 134.222 153.463C134.247 153.326 134.302 153.198 134.384 153.086C134.466 152.974 134.572 152.882 134.694 152.817C134.816 152.752 134.952 152.715 135.09 152.71C135.228 152.704 135.366 152.73 135.494 152.785C135.562 152.816 135.626 152.855 135.684 152.903C142.995 158.846 149.703 165.494 155.71 172.75C161.718 179.999 167.008 187.812 171.506 196.08C172.732 198.338 173.896 200.628 174.998 202.949C175.216 203.409 175.433 203.875 175.646 204.34C176.551 206.3 177.412 208.278 178.229 210.274C178.243 210.305 178.256 210.341 178.27 210.373C178.312 210.459 178.335 210.552 178.337 210.647C178.34 210.742 178.322 210.836 178.285 210.924C178.248 211.012 178.193 211.09 178.124 211.155C178.054 211.22 177.971 211.269 177.881 211.299Z" fill="white"/>
<path d="M117.87 151.737C127.616 151.737 135.516 143.852 135.516 134.125C135.516 124.398 127.616 116.513 117.87 116.513C108.124 116.513 100.223 124.398 100.223 134.125C100.223 143.852 108.124 151.737 117.87 151.737Z" fill="#FF3D71"/>
<path d="M116.121 140.844C115.724 140.844 115.337 140.716 115.019 140.479L115 140.464L110.853 137.295C110.661 137.148 110.499 136.965 110.378 136.756C110.257 136.547 110.178 136.316 110.146 136.076C110.114 135.837 110.13 135.594 110.193 135.36C110.255 135.127 110.363 134.908 110.51 134.716C110.657 134.525 110.841 134.364 111.05 134.243C111.26 134.122 111.491 134.043 111.731 134.012C111.971 133.98 112.215 133.996 112.449 134.058C112.683 134.121 112.902 134.229 113.094 134.376L115.78 136.431L122.128 128.169C122.275 127.977 122.458 127.816 122.668 127.696C122.877 127.575 123.109 127.496 123.349 127.465C123.588 127.433 123.832 127.449 124.066 127.511C124.3 127.574 124.519 127.682 124.711 127.829L124.671 127.882L124.712 127.829C125.099 128.126 125.353 128.565 125.416 129.048C125.48 129.531 125.35 130.02 125.053 130.407L117.586 140.126C117.414 140.35 117.192 140.531 116.937 140.656C116.683 140.78 116.404 140.845 116.121 140.844Z" fill="white"/>
<path d="M383.461 212H0.538758C0.396144 212 0.259515 211.943 0.158817 211.842C0.0581186 211.741 0.00156784 211.605 0.00156784 211.462C0.00156784 211.32 0.0581186 211.183 0.158817 211.083C0.259515 210.982 0.396144 210.925 0.538758 210.925H383.461C383.604 210.925 383.741 210.982 383.841 211.083C383.942 211.183 383.998 211.32 383.998 211.462C383.998 211.605 383.942 211.741 383.841 211.842C383.741 211.943 383.604 212 383.461 212Z" fill="#3F3D56"/>
<path d="M74.9045 61.3926C82.1364 61.3926 87.9989 55.5412 87.9989 48.3233C87.9989 41.1053 82.1364 35.254 74.9045 35.254C67.6726 35.254 61.8101 41.1053 61.8101 48.3233C61.8101 55.5412 67.6726 61.3926 74.9045 61.3926Z" fill="#2F2E41"/>
<path d="M64.6836 41.2767C66.7996 39.1647 67.2284 36.1686 65.6414 34.5847C64.0544 33.0007 61.0525 33.4287 58.9365 35.5407C56.8205 37.6526 56.3917 40.6487 57.9787 42.2327C59.5657 43.8166 62.5676 43.3886 64.6836 41.2767Z" fill="#2F2E41"/>
<path d="M88.5524 37.1264C89.434 35.0664 87.9179 32.4453 85.1659 31.272C82.414 30.0988 79.4684 30.8176 78.5867 32.8776C77.7051 34.9376 79.2213 37.5586 81.9732 38.7319C84.7251 39.9052 87.6707 39.1863 88.5524 37.1264Z" fill="#2F2E41"/>
<path d="M111.367 123.778C111.698 123.15 111.887 122.457 111.921 121.749C111.954 121.041 111.832 120.333 111.562 119.677C111.293 119.021 110.882 118.432 110.359 117.951C109.837 117.471 109.215 117.11 108.538 116.895L89.6173 76.9472L80.9625 83.0046L102.282 120.368C101.996 121.527 102.146 122.751 102.703 123.807C103.261 124.864 104.187 125.68 105.307 126.1C106.427 126.52 107.662 126.516 108.779 126.088C109.896 125.66 110.817 124.838 111.367 123.778V123.778Z" fill="#FFB8B8"/>
<path d="M93.9563 83.612L83.9076 88.0967C83.6217 88.2243 83.3116 88.2889 82.9984 88.2861C82.6852 88.2833 82.3763 88.2132 82.0927 88.0805C81.8091 87.9478 81.5576 87.7557 81.3551 87.5172C81.1526 87.2787 81.004 86.9994 80.9194 86.6984L77.9561 76.1522C77.3104 74.6885 77.2725 73.0289 77.8508 71.5374C78.4291 70.0458 79.5763 68.844 81.0411 68.1954C82.5058 67.5468 84.1685 67.5044 85.6645 68.0775C87.1605 68.6505 88.3678 69.7922 89.0217 71.2524L94.9044 80.4569C95.0728 80.7205 95.1822 81.0172 95.2253 81.3268C95.2684 81.6364 95.2442 81.9517 95.1542 82.2511C95.0642 82.5505 94.9106 82.8271 94.7039 83.0619C94.4972 83.2967 94.2422 83.4844 93.9563 83.612Z" fill="#CCCCCC"/>
<path d="M47.5476 127.738C48.2397 127.578 48.8883 127.268 49.4475 126.83C50.0066 126.392 50.4629 125.838 50.784 125.205C51.1052 124.572 51.2834 123.877 51.3062 123.168C51.329 122.459 51.1958 121.754 50.916 121.102L68.8349 80.6965L58.5844 78.1197L44.1939 118.647C43.1278 119.189 42.2978 120.102 41.8612 121.214C41.4246 122.326 41.4118 123.559 41.8252 124.679C42.2385 125.8 43.0494 126.73 44.1041 127.294C45.1587 127.858 46.384 128.016 47.5476 127.738H47.5476Z" fill="#FFB8B8"/>
<path d="M42.6629 200.977L47.8754 202.871L57.6763 183.706L49.983 180.91L42.6629 200.977Z" fill="#FFB8B8"/>
<path d="M56.1656 211.355L39.7837 205.401L42.0882 199.084L52.1408 202.737C53.8194 203.347 55.1865 204.598 55.9413 206.214C56.6962 207.83 56.7768 209.679 56.1656 211.355Z" fill="#2F2E41"/>
<path d="M54.9922 189.948C54.6723 189.948 54.3565 189.877 54.0674 189.74L48.077 186.908C47.5859 186.678 47.1989 186.273 46.9922 185.773C46.7854 185.272 46.774 184.712 46.9601 184.204L63.8661 137.477C64.0061 137.09 64.2532 136.751 64.5787 136.499C64.9042 136.246 65.2948 136.091 65.7051 136.051C66.1154 136.011 66.5286 136.089 66.8967 136.274C67.2648 136.459 67.5728 136.745 67.7848 137.097L76.7266 151.972C76.9256 152.303 77.0327 152.681 77.0368 153.068C77.0409 153.454 76.942 153.835 76.7502 154.17L56.8926 188.854C56.7002 189.187 56.4231 189.463 56.0895 189.655C55.7558 189.847 55.3773 189.948 54.9922 189.948Z" fill="#2F2E41"/>
<path d="M75.3198 62.535C81.4574 62.535 86.4329 57.569 86.4329 51.4432C86.4329 45.3174 81.4574 40.3515 75.3198 40.3515C69.1822 40.3515 64.2067 45.3174 64.2067 51.4432C64.2067 57.569 69.1822 62.535 75.3198 62.535Z" fill="#FFB8B8"/>
<path d="M91.0418 101.873L71.3648 96.4722L60.8993 75.5818C60.3965 74.5782 60.1592 73.463 60.2097 72.3421C60.2602 71.2212 60.597 70.1318 61.1881 69.1773C61.7791 68.2228 62.6048 67.435 63.5867 66.8886C64.5686 66.3422 65.6742 66.0555 66.7984 66.0555H82.4536C84.0786 66.0544 85.6466 66.653 86.8562 67.736C91.0557 71.4909 99.8787 82.3158 91.1269 101.684L91.0418 101.873Z" fill="#CCCCCC"/>
<path d="M66.4092 87.9228L56.4397 83.2652C56.1561 83.1327 55.9044 82.9407 55.7017 82.7023C55.4991 82.464 55.3504 82.1848 55.2656 81.8839C55.1808 81.583 55.162 81.2673 55.2105 80.9585C55.2589 80.6497 55.3735 80.3549 55.5464 80.0943L61.6052 70.9617C62.2928 69.5172 63.5263 68.4037 65.0352 67.8655C66.5441 67.3272 68.2052 67.4081 69.6545 68.0903C71.1037 68.7726 72.2228 70.0005 72.7663 71.505C73.3099 73.0094 73.2336 74.6676 72.5541 76.116L69.4211 86.5763C69.3313 86.8758 69.1779 87.1524 68.9713 87.3874C68.7648 87.6224 68.5099 87.8101 68.2241 87.9379C67.9382 88.0657 67.6281 88.1305 67.315 88.1279C67.0018 88.1253 66.6928 88.0553 66.4092 87.9228Z" fill="#CCCCCC"/>
<path d="M78.4709 206.213H84.0178L86.657 184.858L78.4696 184.859L78.4709 206.213Z" fill="#FFB8B8"/>
<path d="M94.7163 211.354L77.2823 211.355L77.282 204.632L87.9801 204.631C89.7666 204.631 91.4799 205.339 92.7432 206.6C94.0064 207.861 94.7162 209.571 94.7163 211.354Z" fill="#2F2E41"/>
<path d="M80.5653 198.076C80.0666 198.076 79.5828 197.905 79.1956 197.592C78.8084 197.278 78.5415 196.84 78.4398 196.353C76.8453 188.855 68.564 150.447 62.1005 130.664C55.5243 110.536 66.724 101.368 69.0359 99.7347C69.2821 99.5611 69.4778 99.3253 69.6028 99.0516L71.2825 95.3638C71.4566 94.9831 71.7367 94.6603 72.0895 94.434C72.4422 94.2077 72.8527 94.0874 73.272 94.0873H73.2856C85.8772 94.1624 90.1103 98.124 91.3457 99.8239C91.5279 100.077 91.6528 100.367 91.7117 100.673C91.7706 100.979 91.762 101.294 91.6867 101.597L83.7197 134.403C83.6704 134.607 83.6592 134.817 83.6868 135.025L91.6132 194.591C91.6513 194.877 91.6319 195.168 91.5561 195.447C91.4804 195.726 91.3497 195.987 91.1719 196.214C90.994 196.442 90.7725 196.632 90.5202 196.774C90.268 196.915 89.99 197.005 89.7025 197.039L80.8212 198.061C80.7363 198.071 80.6508 198.076 80.5653 198.076Z" fill="#2F2E41"/>
<path d="M63.6425 44.4665C66.182 46.2135 69.1962 47.1432 72.2805 47.1309C71.1803 47.8923 69.9278 48.4066 68.6093 48.6384C72.71 49.5163 76.9482 49.5401 81.0585 48.7082C81.9722 48.562 82.8538 48.2597 83.6647 47.8148C84.0687 47.5896 84.4208 47.282 84.6979 46.9121C84.9751 46.5421 85.1711 46.1181 85.2733 45.6676C85.5464 44.1102 84.3306 42.6953 83.0671 41.7418C81.1325 40.3041 78.902 39.3136 76.5368 38.8418C74.1716 38.3701 71.7309 38.429 69.3914 39.0143C67.8637 39.4084 66.3333 40.0743 65.3411 41.2988C64.3488 42.5232 64.0549 44.411 65.0003 45.6718L63.6425 44.4665Z" fill="#2F2E41"/>
<path d="M267.637 92.5779C270.886 92.5779 273.519 89.9494 273.519 86.7071C273.519 83.4647 270.886 80.8363 267.637 80.8363C264.389 80.8363 261.755 83.4647 261.755 86.7071C261.755 89.9494 264.389 92.5779 267.637 92.5779Z" fill="#FF3D71"/>
<path d="M267.054 88.9467C266.922 88.9469 266.793 88.9042 266.687 88.825L266.681 88.82L265.298 87.7637C265.234 87.7148 265.18 87.6538 265.139 87.5841C265.099 87.5144 265.073 87.4373 265.062 87.3574C265.051 87.2775 265.056 87.1963 265.077 87.1184C265.098 87.0405 265.134 86.9674 265.183 86.9034C265.232 86.8394 265.293 86.7857 265.363 86.7454C265.433 86.7051 265.511 86.679 265.591 86.6685C265.671 86.658 265.752 86.6634 265.83 86.6843C265.908 86.7053 265.981 86.7414 266.045 86.7906L266.941 87.4758L269.057 84.7217C269.106 84.6578 269.167 84.6042 269.237 84.5639C269.307 84.5237 269.384 84.4975 269.464 84.487C269.544 84.4764 269.625 84.4817 269.703 84.5025C269.781 84.5233 269.854 84.5593 269.918 84.6083L269.904 84.6261L269.918 84.6085C270.047 84.7075 270.132 84.8536 270.153 85.0147C270.174 85.1759 270.131 85.3388 270.032 85.4679L267.543 88.7074C267.485 88.7821 267.411 88.8425 267.327 88.884C267.242 88.9255 267.149 88.9469 267.054 88.9467Z" fill="white"/>
<path d="M267.637 109.739C270.886 109.739 273.519 107.11 273.519 103.868C273.519 100.626 270.886 97.9971 267.637 97.9971C264.389 97.9971 261.755 100.626 261.755 103.868C261.755 107.11 264.389 109.739 267.637 109.739Z" fill="#FF3D71"/>
<path d="M267.054 106.107C266.922 106.108 266.793 106.065 266.687 105.986L266.681 105.981L265.298 104.924C265.234 104.876 265.18 104.815 265.139 104.745C265.099 104.675 265.073 104.598 265.062 104.518C265.051 104.438 265.056 104.357 265.077 104.279C265.098 104.201 265.134 104.128 265.183 104.064C265.232 104 265.293 103.947 265.363 103.906C265.433 103.866 265.511 103.84 265.591 103.829C265.671 103.819 265.752 103.824 265.83 103.845C265.908 103.866 265.981 103.902 266.045 103.951L266.941 104.637L269.057 101.882C269.106 101.819 269.167 101.765 269.237 101.725C269.307 101.684 269.384 101.658 269.464 101.648C269.544 101.637 269.625 101.643 269.703 101.663C269.781 101.684 269.854 101.72 269.918 101.769L269.904 101.787L269.918 101.769C270.047 101.868 270.132 102.014 270.153 102.176C270.174 102.337 270.131 102.5 270.032 102.629L267.543 105.868C267.485 105.943 267.411 106.003 267.327 106.045C267.242 106.086 267.149 106.108 267.054 106.107Z" fill="white"/>
<path d="M270.805 129.609C274.053 129.609 276.687 126.981 276.687 123.738C276.687 120.496 274.053 117.867 270.805 117.867C267.556 117.867 264.923 120.496 264.923 123.738C264.923 126.981 267.556 129.609 270.805 129.609Z" fill="#FF3D71"/>
<path d="M270.222 125.978C270.089 125.978 269.96 125.935 269.854 125.856L269.848 125.851L268.466 124.795C268.401 124.746 268.347 124.685 268.307 124.615C268.266 124.545 268.24 124.468 268.229 124.389C268.218 124.309 268.224 124.227 268.244 124.15C268.265 124.072 268.301 123.999 268.35 123.935C268.4 123.871 268.461 123.817 268.531 123.777C268.601 123.736 268.678 123.71 268.758 123.7C268.838 123.689 268.92 123.695 268.998 123.715C269.076 123.736 269.149 123.773 269.213 123.822L270.108 124.507L272.224 121.753C272.273 121.689 272.334 121.635 272.404 121.595C272.474 121.555 272.551 121.529 272.631 121.518C272.711 121.508 272.792 121.513 272.87 121.534C272.948 121.554 273.021 121.59 273.085 121.639L273.072 121.657L273.085 121.64C273.214 121.739 273.299 121.885 273.32 122.046C273.341 122.207 273.298 122.37 273.199 122.499L270.71 125.739C270.653 125.813 270.579 125.874 270.494 125.915C270.409 125.957 270.316 125.978 270.222 125.978Z" fill="white"/>
<path d="M327.524 172.755C327.463 172.755 327.425 172.753 327.412 172.752L320.109 172.753V171.678H327.438C327.608 171.684 331.07 171.782 334.26 167.919C339.013 162.161 342.917 147.909 334.519 112.704C323.226 65.3676 332.645 23.548 337.218 7.76538C337.444 6.98455 337.484 6.16211 337.336 5.36305C337.188 4.564 336.856 3.81022 336.366 3.16127C335.876 2.51232 335.242 1.98598 334.513 1.62385C333.784 1.26171 332.981 1.0737 332.167 1.07467H223.106C222.277 1.07577 221.46 1.27199 220.721 1.6474C219.982 2.02281 219.342 2.56682 218.853 3.23529C216.916 5.89521 214.257 11.0051 212.593 20.2448L211.533 20.0548C213.233 10.6145 215.978 5.35419 217.982 2.60349C218.571 1.79802 219.342 1.1425 220.232 0.690135C221.122 0.237772 222.107 0.00132265 223.106 -1.2334e-05H332.167C333.148 -0.000954673 334.116 0.225821 334.994 0.662399C335.872 1.09898 336.636 1.73339 337.227 2.51553C337.817 3.29767 338.217 4.20609 338.395 5.16903C338.573 6.13197 338.524 7.12305 338.253 8.06395C333.703 23.7647 324.333 65.3673 335.566 112.456C344.083 148.155 339.989 162.717 335.055 168.646C331.8 172.556 328.214 172.755 327.524 172.755Z" fill="#E6E6E6"/>
<path d="M307.874 192.367C307.813 192.367 307.774 192.366 307.761 192.365L300.458 192.366V191.291H307.787C307.958 191.296 311.419 191.395 314.609 187.532C319.363 181.774 323.266 167.521 314.868 132.317C303.576 84.9803 312.994 43.1608 317.568 27.3781C317.793 26.5973 317.833 25.7748 317.685 24.9758C317.538 24.1767 317.205 23.423 316.716 22.774C316.226 22.1251 315.591 21.5987 314.862 21.2366C314.133 20.8745 313.33 20.6864 312.516 20.6874H203.455C202.626 20.6885 201.809 20.8847 201.07 21.2601C200.331 21.6355 199.691 22.1796 199.202 22.848C197.265 25.5079 194.606 30.6179 192.943 39.8575L191.883 39.6676C193.583 30.2272 196.328 24.9669 198.332 22.2162C198.92 21.4108 199.691 20.7552 200.582 20.3029C201.472 19.8505 202.456 19.6141 203.455 19.6127H312.516C313.497 19.6118 314.465 19.8386 315.343 20.2751C316.221 20.7117 316.986 21.3461 317.576 22.1283C318.166 22.9104 318.566 23.8188 318.744 24.7818C318.923 25.7447 318.874 26.7358 318.602 27.6767C314.052 43.3775 304.683 84.98 315.916 132.068C324.432 167.768 320.338 182.329 315.404 188.259C312.15 192.169 308.564 192.367 307.874 192.367Z" fill="#CCCCCC"/>
<path d="M296.265 151.683C285.03 104.595 294.401 62.9891 298.953 47.2915C299.224 46.3505 299.272 45.3596 299.094 44.3969C298.915 43.4341 298.515 42.5259 297.925 41.7438C297.335 40.9617 296.571 40.3272 295.693 39.8902C294.815 39.4533 293.848 39.2259 292.867 39.2259H183.804C182.805 39.2269 181.821 39.463 180.931 39.9149C180.041 40.3669 179.27 41.0221 178.682 41.8271C174.279 47.8695 165.144 67.907 175.347 123.35C180.804 153.011 180.722 173.234 178.94 186.556C177.94 194.057 176.397 199.368 174.998 202.949L174.849 203.328C174.555 204.053 174.401 204.827 174.397 205.609C174.387 206.492 174.564 207.367 174.917 208.176C175.27 208.986 175.792 209.712 176.446 210.305C176.873 210.705 177.357 211.039 177.881 211.299C178.316 211.52 178.776 211.689 179.252 211.8C179.736 211.918 180.233 211.977 180.731 211.976H288.112C288.125 211.976 288.161 211.981 288.225 211.981C288.912 211.981 292.501 211.782 295.754 207.871C300.686 201.942 304.78 187.382 296.265 151.683ZM294.957 207.144C291.768 211.01 288.306 210.91 288.139 210.906H180.731C179.872 210.906 179.025 210.695 178.265 210.293C177.506 209.891 176.856 209.309 176.374 208.598C175.95 207.984 175.665 207.285 175.539 206.549C175.413 205.814 175.45 205.06 175.646 204.34C175.697 204.13 175.763 203.925 175.845 203.726C177.442 199.629 178.626 195.384 179.378 191.054C181.93 177.167 182.405 155.739 176.406 123.156C166.28 68.1238 175.234 48.3889 179.55 42.4594C180.04 41.7919 180.68 41.2487 181.419 40.8737C182.158 40.4987 182.975 40.3025 183.804 40.3007H292.867C293.681 40.3002 294.483 40.4884 295.212 40.8505C295.94 41.2126 296.574 41.7387 297.064 42.3873C297.553 43.0359 297.885 43.7892 298.033 44.5878C298.181 45.3864 298.141 46.2084 297.917 46.9889C293.342 62.7723 283.926 104.595 295.22 151.932C303.618 187.134 299.713 201.386 294.957 207.144Z" fill="#3F3D56"/>
<path d="M244.452 90.5007H188.262C187.12 90.5007 186.024 90.0478 185.217 89.2416C184.409 88.4355 183.955 87.3421 183.955 86.202C183.955 85.0619 184.409 83.9685 185.217 83.1624C186.024 82.3562 187.12 81.9033 188.262 81.9033H244.452C245.595 81.9033 246.69 82.3562 247.498 83.1624C248.306 83.9685 248.759 85.0619 248.759 86.202C248.759 87.3421 248.306 88.4355 247.498 89.2416C246.69 90.0478 245.595 90.5007 244.452 90.5007Z" fill="#CCCCCC"/>
<path d="M244.452 109.016H188.262C187.12 109.016 186.024 108.563 185.217 107.757C184.409 106.951 183.955 105.858 183.955 104.718C183.955 103.577 184.409 102.484 185.217 101.678C186.024 100.872 187.12 100.419 188.262 100.419H244.452C245.595 100.419 246.69 100.872 247.498 101.678C248.306 102.484 248.759 103.577 248.759 104.718C248.759 105.858 248.306 106.951 247.498 107.757C246.69 108.563 245.595 109.016 244.452 109.016Z" fill="#CCCCCC"/>
<path d="M248.977 127.983H192.787C191.644 127.983 190.549 127.53 189.741 126.724C188.934 125.918 188.48 124.825 188.48 123.685C188.48 122.545 188.934 121.451 189.741 120.645C190.549 119.839 191.644 119.386 192.787 119.386H248.977C250.119 119.386 251.215 119.839 252.023 120.645C252.83 121.451 253.284 122.545 253.284 123.685C253.284 124.825 252.83 125.918 252.023 126.724C251.215 127.53 250.119 127.983 248.977 127.983Z" fill="#CCCCCC"/>
<path d="M252.144 147.854H195.954C194.812 147.854 193.716 147.401 192.909 146.595C192.101 145.789 191.647 144.695 191.647 143.555C191.647 142.415 192.101 141.322 192.909 140.515C193.716 139.709 194.812 139.256 195.954 139.256H252.144C253.287 139.256 254.382 139.709 255.19 140.515C255.998 141.322 256.451 142.415 256.451 143.555C256.451 144.695 255.998 145.789 255.19 146.595C254.382 147.401 253.287 147.854 252.144 147.854Z" fill="#CCCCCC"/>
<path d="M252.168 57.1231H211.79C211.224 57.1236 210.664 57.0129 210.141 56.7971C209.618 56.5813 209.143 56.2648 208.742 55.8656C208.342 55.4663 208.024 54.9923 207.807 54.4704C207.591 53.9486 207.479 53.3893 207.479 52.8244C207.479 52.2595 207.591 51.7002 207.807 51.1783C208.024 50.6565 208.342 50.1824 208.742 49.7832C209.143 49.384 209.618 49.0674 210.141 48.8516C210.664 48.6359 211.224 48.5251 211.79 48.5257H252.168C253.311 48.5257 254.406 48.9786 255.214 49.7848C256.022 50.5909 256.475 51.6843 256.475 52.8244C256.475 53.9645 256.022 55.0578 255.214 55.864C254.406 56.6702 253.311 57.1231 252.168 57.1231Z" fill="#FF3D71"/>
<path d="M274.424 149.426C277.673 149.426 280.306 146.797 280.306 143.555C280.306 140.313 277.673 137.684 274.424 137.684C271.176 137.684 268.542 140.313 268.542 143.555C268.542 146.797 271.176 149.426 274.424 149.426Z" fill="#CCCCCC"/>
<path d="M254.859 167.273H198.669C197.527 167.273 196.431 166.82 195.623 166.013C194.816 165.207 194.362 164.114 194.362 162.974C194.362 161.834 194.816 160.74 195.623 159.934C196.431 159.128 197.527 158.675 198.669 158.675H254.859C256.002 158.675 257.097 159.128 257.905 159.934C258.712 160.74 259.166 161.834 259.166 162.974C259.166 164.114 258.712 165.207 257.905 166.013C257.097 166.82 256.002 167.273 254.859 167.273Z" fill="#CCCCCC"/>
<path d="M277.139 168.845C280.388 168.845 283.021 166.216 283.021 162.974C283.021 159.732 280.388 157.103 277.139 157.103C273.891 157.103 271.257 159.732 271.257 162.974C271.257 166.216 273.891 168.845 277.139 168.845Z" fill="#CCCCCC"/>
</g>
<rect x="0.5" y="0.5" width="383" height="211" stroke="black"/>
<defs>
<clipPath id="clip0_330_2663">
<rect width="384" height="212" fill="white"/>
</clipPath>
</defs>
</svg>
